HIERARCHY
ROOT Hips
{
    OFFSET   0.000000   0.000000   0.000000
    CHANNELS 6 Xposition Yposition Zposition Zrotation Xrotation Yrotation
    JOINT Chest
    {
        OFFSET   0.000000   8.007230   0.000000
        CHANNELS 3 Zrotation Xrotation Yrotation
        JOINT Chest2
        {
            OFFSET   0.000000  22.077100   0.000000
            CHANNELS 3 Zrotation Xrotation Yrotation
            JOINT Neck
            {
                OFFSET   0.000000  23.255100   0.000000
                CHANNELS 3 Zrotation Xrotation Yrotation
                JOINT Head
                {
                    OFFSET   0.000000  14.370100   1.956600
                    CHANNELS 3 Zrotation Xrotation Yrotation
                    End Site
                    {
                        OFFSET   0.000000  19.566000   0.000000
                    }
                }
            }
            JOINT LeftCollar
            {
                OFFSET   3.911900  19.017000  -0.467063
                CHANNELS 3 Zrotation Xrotation Yrotation
                JOINT LeftShoulder
                {
                    OFFSET  10.383700   0.000000   0.000000
                    CHANNELS 3 Zrotation Xrotation Yrotation
                    JOINT LeftElbow
                    {
                        OFFSET  26.662100   0.001193   0.000980
                        CHANNELS 3 Zrotation Xrotation Yrotation
                        JOINT LeftWrist
                        {
                            OFFSET  28.869000  -0.000059  -0.000082
                            CHANNELS 3 Zrotation Xrotation Yrotation
                            JOINT LeftFinger0
                            {
                                OFFSET   2.044650  -2.323450   3.252850
                                CHANNELS 3 Zrotation Xrotation Yrotation
                                JOINT LeftFinger01
                                {
                                    OFFSET   3.088130   0.000000   0.000000
                                    CHANNELS 3 Zrotation Xrotation Yrotation
                                    JOINT LeftFinger02
                                    {
                                        OFFSET   2.639460   0.000000   0.000000
                                        CHANNELS 3 Zrotation Xrotation Yrotation
                                        End Site
                                        {
                                            OFFSET   2.582190   0.000000   0.000000
                                        }
                                    }
                                }
                            }
                            JOINT LeftFinger1
                            {
                                OFFSET   8.364480   0.000000   3.252850
                                CHANNELS 3 Zrotation Xrotation Yrotation
                                JOINT LeftFinger11
                                {
                                    OFFSET   4.646930   0.000000   0.000000
                                    CHANNELS 3 Zrotation Xrotation Yrotation
                                    JOINT LeftFinger12
                                    {
                                        OFFSET   2.323470   0.000000   0.000000
                                        CHANNELS 3 Zrotation Xrotation Yrotation
                                        End Site
                                        {
                                            OFFSET   2.273050   0.000000   0.000000
                                        }
                                    }
                                }
                            }
                            JOINT LeftFinger2
                            {
                                OFFSET   8.364490   0.000016   1.078090
                                CHANNELS 3 Zrotation Xrotation Yrotation
                                JOINT LeftFinger21
                                {
                                    OFFSET   5.111610   0.000000   0.000000
                                    CHANNELS 3 Zrotation Xrotation Yrotation
                                    JOINT LeftFinger22
                                    {
                                        OFFSET   2.788150   0.000016   0.000000
                                        CHANNELS 3 Zrotation Xrotation Yrotation
                                        End Site
                                        {
                                            OFFSET   2.727660   0.000000   0.000000
                                        }
                                    }
                                }
                            }
                            JOINT LeftFinger3
                            {
                                OFFSET   7.899780   0.000015  -1.078090
                                CHANNELS 3 Zrotation Xrotation Yrotation
                                JOINT LeftFinger31
                                {
                                    OFFSET   4.646930   0.000000   0.000000
                                    CHANNELS 3 Zrotation Xrotation Yrotation
                                    JOINT LeftFinger32
                                    {
                                        OFFSET   2.323470   0.000000   0.000000
                                        CHANNELS 3 Zrotation Xrotation Yrotation
                                        End Site
                                        {
                                            OFFSET   2.273050   0.000000   0.000000
                                        }
                                    }
                                }
                            }
                            JOINT LeftFinger4
                            {
                                OFFSET   7.435090   0.000000  -3.252850
                                CHANNELS 3 Zrotation Xrotation Yrotation
                                JOINT LeftFinger41
                                {
                                    OFFSET   3.717550   0.000000   0.000000
                                    CHANNELS 3 Zrotation Xrotation Yrotation
                                    JOINT LeftFinger42
                                    {
                                        OFFSET   1.858770   0.000000   0.000000
                                        CHANNELS 3 Zrotation Xrotation Yrotation
                                        End Site
                                        {
                                            OFFSET   1.818440   0.000000   0.000000
                                        }
                                    }
                                }
                            }
                        }
                    }
                }
            }
            JOINT RightCollar
            {
                OFFSET  -3.911910  19.017000  -0.467062
                CHANNELS 3 Zrotation Xrotation Yrotation
                JOINT RightShoulder
                {
                    OFFSET -10.383700   0.000014   0.000000
                    CHANNELS 3 Zrotation Xrotation Yrotation
                    JOINT RightElbow
                    {
                        OFFSET -26.662100   0.001225   0.001091
                        CHANNELS 3 Zrotation Xrotation Yrotation
                        JOINT RightWrist
                        {
                            OFFSET -28.869000  -0.000020  -0.000085
                            CHANNELS 3 Zrotation Xrotation Yrotation
                            JOINT RightFinger0
                            {
                                OFFSET  -2.044650  -2.323490   3.252850
                                CHANNELS 3 Zrotation Xrotation Yrotation
                                JOINT RightFinger01
                                {
                                    OFFSET  -3.088130   0.000000   0.000000
                                    CHANNELS 3 Zrotation Xrotation Yrotation
                                    JOINT RightFinger02
                                    {
                                        OFFSET  -2.639460   0.000000   0.000000
                                        CHANNELS 3 Zrotation Xrotation Yrotation
                                        End Site
                                        {
                                            OFFSET  -2.582190   0.000000   0.000000
                                        }
                                    }
                                }
                            }
                            JOINT RightFinger1
                            {
                                OFFSET  -8.364480   0.000000   3.252850
                                CHANNELS 3 Zrotation Xrotation Yrotation
                                JOINT RightFinger11
                                {
                                    OFFSET  -4.646930   0.000000   0.000000
                                    CHANNELS 3 Zrotation Xrotation Yrotation
                                    JOINT RightFinger12
                                    {
                                        OFFSET  -2.323470   0.000000   0.000000
                                        CHANNELS 3 Zrotation Xrotation Yrotation
                                        End Site
                                        {
                                            OFFSET  -2.273050   0.000000   0.000000
                                        }
                                    }
                                }
                            }
                            JOINT RightFinger2
                            {
                                OFFSET  -8.364480   0.000000   1.078090
                                CHANNELS 3 Zrotation Xrotation Yrotation
                                JOINT RightFinger21
                                {
                                    OFFSET  -5.111620   0.000000   0.000000
                                    CHANNELS 3 Zrotation Xrotation Yrotation
                                    JOINT RightFinger22
                                    {
                                        OFFSET  -2.788160   0.000000   0.000000
                                        CHANNELS 3 Zrotation Xrotation Yrotation
                                        End Site
                                        {
                                            OFFSET  -2.727660   0.000000   0.000000
                                        }
                                    }
                                }
                            }
                            JOINT RightFinger3
                            {
                                OFFSET  -7.899780   0.000000  -1.078090
                                CHANNELS 3 Zrotation Xrotation Yrotation
                                JOINT RightFinger31
                                {
                                    OFFSET  -4.646930   0.000000   0.000000
                                    CHANNELS 3 Zrotation Xrotation Yrotation
                                    JOINT RightFinger32
                                    {
                                        OFFSET  -2.323470   0.000000   0.000000
                                        CHANNELS 3 Zrotation Xrotation Yrotation
                                        End Site
                                        {
                                            OFFSET  -2.273050   0.000000   0.000000
                                        }
                                    }
                                }
                            }
                            JOINT RightFinger4
                            {
                                OFFSET  -7.435090   0.000000  -3.252850
                                CHANNELS 3 Zrotation Xrotation Yrotation
                                JOINT RightFinger41
                                {
                                    OFFSET  -3.717550   0.000000   0.000000
                                    CHANNELS 3 Zrotation Xrotation Yrotation
                                    JOINT RightFinger42
                                    {
                                        OFFSET  -1.858760   0.000000   0.000000
                                        CHANNELS 3 Zrotation Xrotation Yrotation
                                        End Site
                                        {
                                            OFFSET  -1.818440   0.000000   0.000000
                                        }
                                    }
                                }
                            }
                        }
                    }
                }
            }
        }
    }
    JOINT LeftHip
    {
        OFFSET   9.783030   0.000000   0.000000
        CHANNELS 3 Zrotation Xrotation Yrotation
        JOINT LeftKnee
        {
            OFFSET   0.000063 -41.789100   0.000608
            CHANNELS 3 Zrotation Xrotation Yrotation
            JOINT LeftAnkle
            {
                OFFSET   0.000048 -41.133200  -0.000184
                CHANNELS 3 Zrotation Xrotation Yrotation
                JOINT LeftToe
                {
                    OFFSET   0.000000  -6.358960  14.674500
                    CHANNELS 3 Zrotation Xrotation Yrotation
                    End Site
                    {
                        OFFSET   0.000000   0.000000   3.913200
                    }
                }
            }
        }
    }
    JOINT RightHip
    {
        OFFSET  -9.783030   0.000000   0.000000
        CHANNELS 3 Zrotation Xrotation Yrotation
        JOINT RightKnee
        {
            OFFSET   0.000071 -41.789100   0.001239
            CHANNELS 3 Zrotation Xrotation Yrotation
            JOINT RightAnkle
            {
                OFFSET   0.000037 -41.133200  -0.000166
                CHANNELS 3 Zrotation Xrotation Yrotation
                JOINT RightToe
                {
                    OFFSET   0.000000  -6.358960  14.674500
                    CHANNELS 3 Zrotation Xrotation Yrotation
                    End Site
                    {
                        OFFSET   0.000000   0.000000   3.913200
                    }
                }
            }
        }
    }
}
MOTION
Frames: 6
Frame Time:   0.016667
  0.516516  89.752500  -3.164780  -2.308710 -12.178500  -6.905720   0.500397  10.211900  -1.317730   1.274990  20.408900  -2.796110   2.522600  -3.647620   0.160232   4.185870  -7.354310  16.664900  -6.509860  -2.850350   3.885500 -58.490300  15.749600 -17.677800   2.320660 -10.580900 -65.154200 -34.881400 -59.617700 -26.018500  52.048400  39.211900 -78.519600   0.710670   0.002568  -0.000000   5.355350   0.000688  -0.006947 -22.218100   6.493200 -15.477600 -18.901600   0.001051   0.000791 -13.231100  -0.008595  -0.000518 -25.265700   5.668680 -11.826700 -25.855000  -0.010207   0.003058 -17.219500  -0.009617   0.002312 -23.911300   2.831860  -6.359090 -24.068400   0.004994  -0.001014 -16.029500  -0.002193   0.001573 -29.109600  -9.781450  17.034300 -45.868800   0.004134   0.000673 -30.548700  -0.004876  -0.005474  12.365600  -1.708750  13.151800  56.365100   6.563370  15.078600  -9.327880  -9.513250  59.966400  32.666200 -76.136600  60.797300 -42.906800  26.965200  63.119300  -1.165980  -0.006180  -0.000050  -5.582980   0.001953   0.004413  23.884100   4.397320   9.820270  19.850800  -0.002708  -0.002454  13.895500  -0.004304  -0.001506  22.544300   1.288200   3.095720  22.574300   0.004251  -0.006012  15.034500  -0.003493  -0.002712  24.029700  -0.205410  -0.465354  24.025700  -0.002035  -0.001592  16.001100  -0.001230  -0.005217  21.191300  -1.515910  -3.907840  31.858700   0.002837  -0.003744  21.217900  -0.001784   0.005414   1.559460  11.209600   3.926650  -0.034216   2.545050  15.228100  -5.161860  -3.036730   6.971160   0.000000   0.000000   0.000000   1.097040   7.200370  -7.883480  -2.564490   8.497450  -8.183930  -4.866190  -0.922522   5.423810  -0.000000   0.000000   0.000000
  0.510158  89.753300  -3.163180  -2.274170 -12.025800  -6.873510   0.457987  10.110000  -1.284100   1.178510  20.206600  -2.716880   2.533930  -3.640330   0.159526   4.209950  -7.338590  16.524400  -6.514400  -2.967840   3.798210 -58.375500  16.113600 -17.496100   2.581920 -10.849100 -64.646400 -33.035100 -59.496300 -24.218300  52.902200  39.574400 -78.898500   0.029566   0.002725  -0.000000   5.014780   0.000688  -0.007056 -22.554000   6.517100 -15.276900 -19.168700   0.001110   0.000869 -13.418100  -0.008600  -0.000328 -25.279900   5.667220 -11.815800 -25.870600  -0.010379   0.003039 -17.229800  -0.009079   0.002361 -24.038800   2.812340  -6.273970 -24.193000   0.005445  -0.000671 -16.112500  -0.002193   0.001717 -29.715400  -9.807900  16.601800 -46.730100   0.005189   0.000767 -31.122300  -0.004870  -0.005558  12.362200  -1.722900  13.124700  56.247000   6.866380  15.088400  -9.614070  -9.567890  59.434200  27.653400 -75.684600  55.664500 -43.028200  27.565700  63.970500  -0.678354  -0.006467   0.000000  -5.339160   0.001977   0.005250  23.859200   4.316750   9.658500  19.816400  -0.002799  -0.002448  13.871500  -0.003822  -0.001638  22.815300   1.190520   2.823010  22.839300   0.004445  -0.005954  15.211000  -0.003581  -0.002838  24.243000  -0.332153  -0.742662  24.240600  -0.002253  -0.001664  16.144200  -0.001389  -0.005217  21.340500  -1.608400  -4.113970  32.090700   0.003025  -0.003342  21.372400  -0.002069   0.005169   1.539580  11.030500   3.870630  -0.034823   2.575770  15.231900  -5.144630  -3.043350   7.009260  -0.000000   0.000000   0.000000   1.074150   7.105740  -7.858470  -2.541170   8.389980  -8.221860  -4.879570  -0.888103   5.421870  -0.000000   0.000000  -0.000000
  0.505976  89.754100  -3.159180  -2.245830 -11.873500  -6.819570   0.419810   9.999370  -1.245210   1.089710  19.986700  -2.627710   2.533020  -3.642890   0.158799   4.215560  -7.342900  16.317600  -6.507670  -3.075550   3.665110 -58.359400  16.430200 -17.245800   2.730210 -11.059700 -64.055600 -30.390300 -59.093000 -21.811400  54.209100  40.115300 -79.634100  -0.656600   0.013584   0.000180   4.671680   0.005714  -0.018210 -22.811800   6.511210 -15.069200 -19.359100   0.001148   0.000953 -13.551400  -0.008593  -0.000124 -25.245800   5.736260 -11.961100 -25.844600  -0.010539   0.003017 -17.212400  -0.008551   0.002407 -24.166000   2.792740  -6.185780 -24.311000   0.005864  -0.000335 -16.191100  -0.002193   0.001861 -30.388400  -9.694390  15.953900 -47.644200   0.006204   0.000844 -31.731100  -0.004863  -0.005660  12.351000  -1.723040  13.070300  56.089200   7.194680  15.054200  -9.807680  -9.636330  58.841300  22.467900 -74.923000  50.362400 -42.883300  28.095000  64.991700   0.177967  -0.006732   0.000095  -4.911000   0.001980   0.007375  23.919400   4.214420   9.410970  19.848400  -0.002902  -0.002445  13.893900  -0.003344  -0.001748  23.071000   1.063520   2.488240  23.083400   0.003154  -0.005888  15.373600  -0.003663  -0.002967  24.497100  -0.465534  -1.031070  24.491500  -0.002463  -0.001736  16.311300  -0.001536  -0.005216  21.505500  -1.724530  -4.378650  32.342800   0.003238  -0.002940  21.540300  -0.002390   0.004915   1.543540  10.844500   3.815890  -0.051294   2.621070  15.195500  -5.128980  -3.059230   7.060270  -0.000000   0.000000   0.000000   1.055170   7.019040  -7.826240  -2.510670   8.276450  -8.264520  -4.894230  -0.844394   5.392690   0.000000   0.000000   0.000000
  0.500923  89.755600  -3.145660  -2.217000 -11.727800  -6.743000   0.384905   9.880970  -1.203050   1.007060  19.751200  -2.532560   2.526860  -3.645450   0.157976   4.198210  -7.349440  16.059100  -6.500680  -3.132990   3.516520 -58.363200  16.734700 -16.985500   3.116370 -11.226200 -63.266500 -27.151000 -58.266500 -18.956000  55.097100  40.556800 -80.112200  -1.607910   0.029657   0.000885   4.196010   0.013301  -0.034143 -23.065400   6.436610 -14.693600 -19.528800   0.001178   0.001037 -13.670200  -0.008581   0.000093 -25.183800   5.805180 -12.106500 -25.772500  -0.010622   0.003002 -17.164400  -0.008041   0.002456 -24.255900   2.720880  -5.981670 -24.380400   0.006255   0.000000 -16.237300  -0.002193   0.001999 -31.057200  -9.443270  15.191400 -48.504900   0.007135   0.000909 -32.304300  -0.004857  -0.005773  12.342500  -1.721770  13.004700  55.919400   7.577700  15.022500  -9.940730  -9.686140  58.020100  17.321300 -73.891900  45.079500 -42.721200  28.604100  66.023600   1.153680  -0.006989   0.000215  -4.423150   0.001983   0.010152  23.987200   4.086080   9.103630  19.880400  -0.002968  -0.002437  13.916300  -0.002882  -0.001852  23.289400   0.905518   2.090770  23.287800   0.000981  -0.005818  15.509700  -0.003708  -0.003096  24.743500  -0.623260  -1.367560  24.734200  -0.002659  -0.001803  16.473000  -0.001672  -0.005210  21.662100  -1.867200  -4.708270  32.583200   0.003360  -0.002534  21.700400  -0.002728   0.004650   1.561310  10.667000   3.762780  -0.072658   2.665440  15.125600  -5.115200  -3.077530   7.107440   0.000000   0.000000   0.000000   1.043550   6.957650  -7.805280  -2.478380   8.151320  -8.315700  -4.910460  -0.797764   5.348070  -0.000000   0.000000   0.000000
  0.491435  89.758400  -3.115750  -2.189870 -11.600900  -6.640840   0.354576   9.754100  -1.158530   0.933423  19.498600  -2.433490   2.499740  -3.645020   0.157464   4.147940  -7.350540  15.752300  -6.496670  -3.134090   3.367940 -58.552800  16.988100 -16.751500   3.653580 -11.169600 -62.122300 -23.545800 -56.848600 -15.866000  55.706100  40.711200 -80.021700  -3.157710   0.040308   0.002806   3.421120   0.018520  -0.042528 -23.390900   6.198920 -13.935900 -19.736200   0.001208   0.001114 -13.815400  -0.008575   0.000324 -25.124800   5.651500 -11.801300 -25.658400  -0.010615   0.003001 -17.088400  -0.007602   0.002505 -24.242700   2.518920  -5.521120 -24.335700   0.006626   0.000338 -16.207500  -0.002195   0.002121 -31.568800  -9.173760  14.473600 -49.147500   0.008057   0.000978 -32.732300  -0.004863  -0.005894  12.331700  -1.682820  12.930200  55.758400   8.000540  15.052100 -10.087000  -9.646470  56.856600  12.630700 -72.603500  40.196400 -42.778800  29.172500  66.907500   2.031020  -0.007249   0.000352  -3.984480   0.002002   0.013540  23.957700   3.930500   8.776830  19.825600  -0.002976  -0.002402  13.877900  -0.002369  -0.001965  23.430000   0.711514   1.627620  23.413700  -0.000874  -0.005746  15.593600  -0.003704  -0.003218  24.936000  -0.826611  -1.795400  24.929900  -0.002833  -0.001858  16.603300  -0.001798  -0.005195  21.804600  -2.041700  -5.110650  32.796400  -0.000243  -0.002116  21.842400  -0.002897   0.004372   1.584070  10.521100   3.709970  -0.093244   2.691100  15.045100  -5.105540  -3.094330   7.142350  -0.000000   0.000000   0.000000   1.047180   6.937450  -7.815990  -2.453270   8.003670  -8.375500  -4.929300  -0.752435   5.318060  -0.000000   0.000000   0.000000
  0.480917  89.762800  -3.075120  -2.163200 -11.482400  -6.517590   0.327840   9.623090  -1.111470   0.866899  19.237700  -2.330110   2.447680  -3.642020   0.155759   4.066310  -7.343990  15.413800  -6.496780  -3.134600   3.230720 -58.890200  17.221800 -16.565000   4.137110 -10.860100 -60.631000 -19.778900 -54.893000 -12.688800  56.505500  40.714200 -79.768800  -5.045630   0.045599   0.004202   2.477170   0.021177  -0.046040 -23.673000   5.835830 -12.987800 -19.872500   0.001236   0.001190 -13.910800  -0.008573   0.000566 -25.055400   5.263730 -11.026400 -25.502300  -0.010567   0.003001 -16.984500  -0.007098   0.002566 -24.180800   2.233590  -4.901990 -24.243100   0.006968   0.000673 -16.145900  -0.002198   0.002237 -32.012100  -8.809230  13.680000 -49.659700   0.008558   0.001017 -33.073400  -0.004869  -0.006021  12.316600  -1.622520  12.858900  55.605200   8.472480  15.113900 -10.191300  -9.507890  55.388000   8.055450 -71.037700  35.409600 -42.892700  29.710900  67.659900   2.952510  -0.007499   0.000494  -3.523750   0.002025   0.016581  23.869400   3.723670   8.347680  19.725100  -0.002977  -0.002357  13.807600  -0.002035  -0.002076  23.490900   0.474692   1.075060  23.461800  -0.002618  -0.005670  15.625600  -0.003675  -0.003340  25.058700  -1.057650  -2.280990  25.053600  -0.002980  -0.001914  16.685700  -0.001902  -0.005178  21.859600  -2.249130  -5.609440  32.907400  -0.005696  -0.001706  21.916400  -0.003409   0.004080   1.604660  10.397400   3.659970  -0.110545   2.701450  14.965800  -5.096270  -3.104730   7.158600   0.000000   0.000000  -0.000000   1.056260   6.934410  -7.826980  -2.426120   7.848410  -8.449330  -4.948150  -0.709557   5.285140  -0.000000   0.000000   0.000000
